<mxfile host="app.diagrams.net" agent="Mozilla/5.0 (Windows NT 10.0; Win64; x64) AppleWebKit/537.36 (KHTML, like Gecko) Chrome/134.0.0.0 Safari/537.36 Edg/134.0.0.0" version="26.1.3">
  <diagram name="第 1 页" id="X17xcM6WevdRjKBcEx3m">
    <mxGraphModel dx="3680" dy="1107" grid="1" gridSize="10" guides="1" tooltips="1" connect="1" arrows="1" fold="1" page="1" pageScale="1" pageWidth="827" pageHeight="1169" math="0" shadow="0">
      <root>
        <mxCell id="0" />
        <mxCell id="1" parent="0" />
        <mxCell id="ANRu0jSsqkNCVLlQmOHD-40" value="" style="rounded=0;whiteSpace=wrap;html=1;" vertex="1" parent="1">
          <mxGeometry x="-360" y="850" width="120" height="350" as="geometry" />
        </mxCell>
        <mxCell id="ANRu0jSsqkNCVLlQmOHD-1" value="" style="rounded=0;whiteSpace=wrap;html=1;fillColor=#f5f5f5;fontColor=#333333;strokeColor=#666666;" vertex="1" parent="1">
          <mxGeometry x="80" y="170" width="660" height="460" as="geometry" />
        </mxCell>
        <mxCell id="ANRu0jSsqkNCVLlQmOHD-2" value="埋点助手" style="text;html=1;align=center;verticalAlign=middle;whiteSpace=wrap;rounded=0;fontSize=25;" vertex="1" parent="1">
          <mxGeometry x="80" y="180" width="130" height="30" as="geometry" />
        </mxCell>
        <mxCell id="ANRu0jSsqkNCVLlQmOHD-5" value="飞书在线文档" style="rounded=1;whiteSpace=wrap;html=1;labelBackgroundColor=none;fillColor=#e1d5e7;strokeColor=#9673a6;" vertex="1" parent="1">
          <mxGeometry x="-80" y="270" width="120" height="60" as="geometry" />
        </mxCell>
        <mxCell id="ANRu0jSsqkNCVLlQmOHD-6" value="线下文档" style="rounded=1;whiteSpace=wrap;html=1;fillColor=#e1d5e7;strokeColor=#9673a6;" vertex="1" parent="1">
          <mxGeometry x="-80" y="420" width="120" height="60" as="geometry" />
        </mxCell>
        <mxCell id="ANRu0jSsqkNCVLlQmOHD-7" value="Actor" style="shape=umlActor;verticalLabelPosition=bottom;verticalAlign=top;html=1;" vertex="1" parent="1">
          <mxGeometry x="-260" y="240" width="30" height="60" as="geometry" />
        </mxCell>
        <mxCell id="ANRu0jSsqkNCVLlQmOHD-8" value="Actor" style="shape=umlActor;verticalLabelPosition=bottom;verticalAlign=top;html=1;" vertex="1" parent="1">
          <mxGeometry x="-260" y="340" width="30" height="60" as="geometry" />
        </mxCell>
        <mxCell id="ANRu0jSsqkNCVLlQmOHD-9" value="Actor" style="shape=umlActor;verticalLabelPosition=bottom;verticalAlign=top;html=1;" vertex="1" parent="1">
          <mxGeometry x="-260" y="440" width="30" height="60" as="geometry" />
        </mxCell>
        <mxCell id="ANRu0jSsqkNCVLlQmOHD-12" value="" style="strokeWidth=2;html=1;shape=mxgraph.flowchart.annotation_2;align=left;labelPosition=right;pointerEvents=1;" vertex="1" parent="1">
          <mxGeometry x="-200" y="295" width="100" height="150" as="geometry" />
        </mxCell>
        <mxCell id="ANRu0jSsqkNCVLlQmOHD-13" value="文件导入模块" style="rounded=1;whiteSpace=wrap;html=1;fillColor=#fff2cc;strokeColor=#d6b656;" vertex="1" parent="1">
          <mxGeometry x="110" y="230" width="120" height="300" as="geometry" />
        </mxCell>
        <mxCell id="ANRu0jSsqkNCVLlQmOHD-16" value="" style="endArrow=classic;html=1;rounded=0;entryX=-0.025;entryY=0.23;entryDx=0;entryDy=0;entryPerimeter=0;" edge="1" parent="1">
          <mxGeometry width="50" height="50" relative="1" as="geometry">
            <mxPoint x="50" y="300" as="sourcePoint" />
            <mxPoint x="107" y="299" as="targetPoint" />
          </mxGeometry>
        </mxCell>
        <mxCell id="ANRu0jSsqkNCVLlQmOHD-17" value="" style="endArrow=classic;html=1;rounded=0;entryX=-0.025;entryY=0.23;entryDx=0;entryDy=0;entryPerimeter=0;" edge="1" parent="1">
          <mxGeometry width="50" height="50" relative="1" as="geometry">
            <mxPoint x="50" y="450.5" as="sourcePoint" />
            <mxPoint x="107" y="449.5" as="targetPoint" />
          </mxGeometry>
        </mxCell>
        <mxCell id="ANRu0jSsqkNCVLlQmOHD-18" value="" style="rounded=1;whiteSpace=wrap;html=1;fillColor=#dae8fc;strokeColor=#6c8ebf;" vertex="1" parent="1">
          <mxGeometry x="260" y="230" width="300" height="300" as="geometry" />
        </mxCell>
        <mxCell id="ANRu0jSsqkNCVLlQmOHD-19" value="校验结果输出" style="rounded=1;whiteSpace=wrap;html=1;fillColor=#ffe6cc;strokeColor=#d79b00;" vertex="1" parent="1">
          <mxGeometry x="600" y="230" width="120" height="300" as="geometry" />
        </mxCell>
        <mxCell id="ANRu0jSsqkNCVLlQmOHD-21" value="文件类型校验" style="rounded=1;whiteSpace=wrap;html=1;" vertex="1" parent="1">
          <mxGeometry x="280" y="270" width="120" height="60" as="geometry" />
        </mxCell>
        <mxCell id="ANRu0jSsqkNCVLlQmOHD-22" value="文件结构校验" style="rounded=1;whiteSpace=wrap;html=1;" vertex="1" parent="1">
          <mxGeometry x="414" y="270" width="120" height="60" as="geometry" />
        </mxCell>
        <mxCell id="ANRu0jSsqkNCVLlQmOHD-23" value="协议结构校验" style="rounded=1;whiteSpace=wrap;html=1;" vertex="1" parent="1">
          <mxGeometry x="280" y="350" width="120" height="60" as="geometry" />
        </mxCell>
        <mxCell id="ANRu0jSsqkNCVLlQmOHD-24" value="协议格式校验" style="rounded=1;whiteSpace=wrap;html=1;" vertex="1" parent="1">
          <mxGeometry x="414" y="350" width="120" height="60" as="geometry" />
        </mxCell>
        <mxCell id="ANRu0jSsqkNCVLlQmOHD-25" value="业务逻辑校验" style="rounded=1;whiteSpace=wrap;html=1;" vertex="1" parent="1">
          <mxGeometry x="280" y="430" width="120" height="60" as="geometry" />
        </mxCell>
        <mxCell id="ANRu0jSsqkNCVLlQmOHD-26" value="字符合法性校验" style="rounded=1;whiteSpace=wrap;html=1;" vertex="1" parent="1">
          <mxGeometry x="414" y="430" width="120" height="60" as="geometry" />
        </mxCell>
        <mxCell id="ANRu0jSsqkNCVLlQmOHD-27" value="" style="endArrow=classic;html=1;rounded=0;" edge="1" parent="1">
          <mxGeometry width="50" height="50" relative="1" as="geometry">
            <mxPoint x="230" y="300" as="sourcePoint" />
            <mxPoint x="270" y="300" as="targetPoint" />
          </mxGeometry>
        </mxCell>
        <mxCell id="ANRu0jSsqkNCVLlQmOHD-28" value="" style="endArrow=classic;html=1;rounded=0;" edge="1" parent="1">
          <mxGeometry width="50" height="50" relative="1" as="geometry">
            <mxPoint x="230" y="350" as="sourcePoint" />
            <mxPoint x="270" y="350" as="targetPoint" />
          </mxGeometry>
        </mxCell>
        <mxCell id="ANRu0jSsqkNCVLlQmOHD-29" value="" style="endArrow=classic;html=1;rounded=0;" edge="1" parent="1">
          <mxGeometry width="50" height="50" relative="1" as="geometry">
            <mxPoint x="230" y="400" as="sourcePoint" />
            <mxPoint x="270" y="400" as="targetPoint" />
          </mxGeometry>
        </mxCell>
        <mxCell id="ANRu0jSsqkNCVLlQmOHD-30" value="" style="endArrow=classic;html=1;rounded=0;" edge="1" parent="1">
          <mxGeometry width="50" height="50" relative="1" as="geometry">
            <mxPoint x="230" y="449.5" as="sourcePoint" />
            <mxPoint x="270" y="449.5" as="targetPoint" />
          </mxGeometry>
        </mxCell>
        <mxCell id="ANRu0jSsqkNCVLlQmOHD-31" value="" style="endArrow=classic;html=1;rounded=0;" edge="1" parent="1">
          <mxGeometry width="50" height="50" relative="1" as="geometry">
            <mxPoint x="560" y="300" as="sourcePoint" />
            <mxPoint x="600" y="300" as="targetPoint" />
          </mxGeometry>
        </mxCell>
        <mxCell id="ANRu0jSsqkNCVLlQmOHD-32" value="" style="endArrow=classic;html=1;rounded=0;" edge="1" parent="1">
          <mxGeometry width="50" height="50" relative="1" as="geometry">
            <mxPoint x="560" y="379.5" as="sourcePoint" />
            <mxPoint x="600" y="379.5" as="targetPoint" />
          </mxGeometry>
        </mxCell>
        <mxCell id="ANRu0jSsqkNCVLlQmOHD-33" value="" style="endArrow=classic;html=1;rounded=0;" edge="1" parent="1">
          <mxGeometry width="50" height="50" relative="1" as="geometry">
            <mxPoint x="560" y="459.5" as="sourcePoint" />
            <mxPoint x="600" y="459.5" as="targetPoint" />
          </mxGeometry>
        </mxCell>
        <mxCell id="ANRu0jSsqkNCVLlQmOHD-34" value="任务状态管理模块" style="rounded=1;whiteSpace=wrap;html=1;fillColor=#f8cecc;strokeColor=#b85450;" vertex="1" parent="1">
          <mxGeometry x="110" y="550" width="610" height="60" as="geometry" />
        </mxCell>
        <mxCell id="ANRu0jSsqkNCVLlQmOHD-35" value="" style="rounded=0;whiteSpace=wrap;html=1;" vertex="1" parent="1">
          <mxGeometry x="-200" y="850" width="930" height="350" as="geometry" />
        </mxCell>
        <mxCell id="ANRu0jSsqkNCVLlQmOHD-36" value="埋点助手-输入模块" style="text;html=1;align=center;verticalAlign=middle;whiteSpace=wrap;rounded=0;fontSize=20;fontStyle=1" vertex="1" parent="1">
          <mxGeometry x="-200" y="850" width="170" height="30" as="geometry" />
        </mxCell>
        <mxCell id="ANRu0jSsqkNCVLlQmOHD-37" value="飞书文档" style="rounded=1;whiteSpace=wrap;html=1;" vertex="1" parent="1">
          <mxGeometry x="-340" y="930" width="80" height="60" as="geometry" />
        </mxCell>
        <mxCell id="ANRu0jSsqkNCVLlQmOHD-39" value="" style="rounded=1;whiteSpace=wrap;html=1;" vertex="1" parent="1">
          <mxGeometry x="-170" y="910" width="290" height="260" as="geometry" />
        </mxCell>
        <mxCell id="ANRu0jSsqkNCVLlQmOHD-41" value="前端" style="text;html=1;align=center;verticalAlign=middle;whiteSpace=wrap;rounded=0;fontSize=20;fontStyle=1" vertex="1" parent="1">
          <mxGeometry x="-360" y="850" width="60" height="30" as="geometry" />
        </mxCell>
        <mxCell id="ANRu0jSsqkNCVLlQmOHD-42" value="本地文档" style="rounded=1;whiteSpace=wrap;html=1;" vertex="1" parent="1">
          <mxGeometry x="-340" y="1010" width="80" height="60" as="geometry" />
        </mxCell>
        <mxCell id="ANRu0jSsqkNCVLlQmOHD-43" value="&lt;font style=&quot;font-size: 20px;&quot;&gt;&lt;b&gt;...&lt;/b&gt;&lt;/font&gt;" style="rounded=1;whiteSpace=wrap;html=1;" vertex="1" parent="1">
          <mxGeometry x="-340" y="1090" width="80" height="60" as="geometry" />
        </mxCell>
        <mxCell id="ANRu0jSsqkNCVLlQmOHD-44" value="" style="endArrow=classic;html=1;rounded=0;entryX=0.003;entryY=0.223;entryDx=0;entryDy=0;entryPerimeter=0;" edge="1" parent="1" target="ANRu0jSsqkNCVLlQmOHD-39">
          <mxGeometry width="50" height="50" relative="1" as="geometry">
            <mxPoint x="-250" y="960" as="sourcePoint" />
            <mxPoint x="-200" y="920" as="targetPoint" />
          </mxGeometry>
        </mxCell>
        <mxCell id="ANRu0jSsqkNCVLlQmOHD-51" value="开放平台" style="edgeLabel;html=1;align=center;verticalAlign=middle;resizable=0;points=[];" vertex="1" connectable="0" parent="ANRu0jSsqkNCVLlQmOHD-44">
          <mxGeometry x="-0.2827" y="-1" relative="1" as="geometry">
            <mxPoint as="offset" />
          </mxGeometry>
        </mxCell>
        <mxCell id="ANRu0jSsqkNCVLlQmOHD-46" value="" style="endArrow=classic;html=1;rounded=0;entryX=0;entryY=0.5;entryDx=0;entryDy=0;" edge="1" parent="1" target="ANRu0jSsqkNCVLlQmOHD-39">
          <mxGeometry width="50" height="50" relative="1" as="geometry">
            <mxPoint x="-251" y="1040" as="sourcePoint" />
            <mxPoint x="-170" y="1048" as="targetPoint" />
          </mxGeometry>
        </mxCell>
        <mxCell id="ANRu0jSsqkNCVLlQmOHD-53" value="文件流上报" style="edgeLabel;html=1;align=center;verticalAlign=middle;resizable=0;points=[];" vertex="1" connectable="0" parent="ANRu0jSsqkNCVLlQmOHD-46">
          <mxGeometry x="-0.2099" y="1" relative="1" as="geometry">
            <mxPoint as="offset" />
          </mxGeometry>
        </mxCell>
        <mxCell id="ANRu0jSsqkNCVLlQmOHD-48" value="" style="endArrow=classic;html=1;rounded=0;entryX=0;entryY=0.75;entryDx=0;entryDy=0;" edge="1" parent="1" target="ANRu0jSsqkNCVLlQmOHD-39">
          <mxGeometry width="50" height="50" relative="1" as="geometry">
            <mxPoint x="-251" y="1119.5" as="sourcePoint" />
            <mxPoint x="-170" y="1119.5" as="targetPoint" />
          </mxGeometry>
        </mxCell>
        <mxCell id="ANRu0jSsqkNCVLlQmOHD-54" value="其他" style="edgeLabel;html=1;align=center;verticalAlign=middle;resizable=0;points=[];" vertex="1" connectable="0" parent="ANRu0jSsqkNCVLlQmOHD-48">
          <mxGeometry x="-0.2869" y="-1" relative="1" as="geometry">
            <mxPoint as="offset" />
          </mxGeometry>
        </mxCell>
        <mxCell id="ANRu0jSsqkNCVLlQmOHD-49" value="excel_1" style="rounded=1;whiteSpace=wrap;html=1;" vertex="1" parent="1">
          <mxGeometry x="-160" y="960" width="120" height="60" as="geometry" />
        </mxCell>
        <mxCell id="ANRu0jSsqkNCVLlQmOHD-50" value="本地下载" style="text;html=1;align=center;verticalAlign=middle;whiteSpace=wrap;rounded=0;fontSize=15;" vertex="1" parent="1">
          <mxGeometry x="-160" y="920" width="80" height="30" as="geometry" />
        </mxCell>
        <mxCell id="ANRu0jSsqkNCVLlQmOHD-55" value="excel_2" style="rounded=1;whiteSpace=wrap;html=1;" vertex="1" parent="1">
          <mxGeometry x="-20" y="960" width="120" height="60" as="geometry" />
        </mxCell>
        <mxCell id="ANRu0jSsqkNCVLlQmOHD-56" value="excel_3" style="rounded=1;whiteSpace=wrap;html=1;" vertex="1" parent="1">
          <mxGeometry x="-160" y="1060" width="120" height="60" as="geometry" />
        </mxCell>
        <mxCell id="ANRu0jSsqkNCVLlQmOHD-57" value="&lt;font style=&quot;font-size: 20px;&quot;&gt;&lt;b&gt;...&lt;/b&gt;&lt;/font&gt;" style="rounded=1;whiteSpace=wrap;html=1;" vertex="1" parent="1">
          <mxGeometry x="-20" y="1060" width="120" height="60" as="geometry" />
        </mxCell>
        <mxCell id="ANRu0jSsqkNCVLlQmOHD-59" value="前端" style="shape=umlLifeline;perimeter=lifelinePerimeter;whiteSpace=wrap;html=1;container=1;dropTarget=0;collapsible=0;recursiveResize=0;outlineConnect=0;portConstraint=eastwest;newEdgeStyle={&quot;curved&quot;:0,&quot;rounded&quot;:0};" vertex="1" parent="1">
          <mxGeometry x="-140" y="1730" width="100" height="490" as="geometry" />
        </mxCell>
        <mxCell id="ANRu0jSsqkNCVLlQmOHD-60" value="" style="html=1;points=[[0,0,0,0,5],[0,1,0,0,-5],[1,0,0,0,5],[1,1,0,0,-5]];perimeter=orthogonalPerimeter;outlineConnect=0;targetShapes=umlLifeline;portConstraint=eastwest;newEdgeStyle={&quot;curved&quot;:0,&quot;rounded&quot;:0};" vertex="1" parent="ANRu0jSsqkNCVLlQmOHD-59">
          <mxGeometry x="45" y="110" width="10" height="80" as="geometry" />
        </mxCell>
        <mxCell id="ANRu0jSsqkNCVLlQmOHD-72" value="" style="html=1;points=[[0,0,0,0,5],[0,1,0,0,-5],[1,0,0,0,5],[1,1,0,0,-5]];perimeter=orthogonalPerimeter;outlineConnect=0;targetShapes=umlLifeline;portConstraint=eastwest;newEdgeStyle={&quot;curved&quot;:0,&quot;rounded&quot;:0};" vertex="1" parent="ANRu0jSsqkNCVLlQmOHD-59">
          <mxGeometry x="45" y="240" width="10" height="80" as="geometry" />
        </mxCell>
        <mxCell id="ANRu0jSsqkNCVLlQmOHD-81" value="" style="html=1;points=[[0,0,0,0,5],[0,1,0,0,-5],[1,0,0,0,5],[1,1,0,0,-5]];perimeter=orthogonalPerimeter;outlineConnect=0;targetShapes=umlLifeline;portConstraint=eastwest;newEdgeStyle={&quot;curved&quot;:0,&quot;rounded&quot;:0};" vertex="1" parent="ANRu0jSsqkNCVLlQmOHD-59">
          <mxGeometry x="45" y="360" width="10" height="100" as="geometry" />
        </mxCell>
        <mxCell id="ANRu0jSsqkNCVLlQmOHD-63" value="飞书开放平台" style="shape=umlLifeline;perimeter=lifelinePerimeter;whiteSpace=wrap;html=1;container=1;dropTarget=0;collapsible=0;recursiveResize=0;outlineConnect=0;portConstraint=eastwest;newEdgeStyle={&quot;curved&quot;:0,&quot;rounded&quot;:0};" vertex="1" parent="1">
          <mxGeometry x="-10" y="1730" width="100" height="490" as="geometry" />
        </mxCell>
        <mxCell id="ANRu0jSsqkNCVLlQmOHD-64" value="" style="html=1;points=[[0,0,0,0,5],[0,1,0,0,-5],[1,0,0,0,5],[1,1,0,0,-5]];perimeter=orthogonalPerimeter;outlineConnect=0;targetShapes=umlLifeline;portConstraint=eastwest;newEdgeStyle={&quot;curved&quot;:0,&quot;rounded&quot;:0};" vertex="1" parent="ANRu0jSsqkNCVLlQmOHD-63">
          <mxGeometry x="45" y="110" width="10" height="80" as="geometry" />
        </mxCell>
        <mxCell id="ANRu0jSsqkNCVLlQmOHD-62" value="upload" style="html=1;verticalAlign=bottom;endArrow=open;dashed=1;endSize=8;curved=0;rounded=0;exitX=1;exitY=1;exitDx=0;exitDy=-5;entryX=0;entryY=1;entryDx=0;entryDy=-5;entryPerimeter=0;" edge="1" source="ANRu0jSsqkNCVLlQmOHD-60" parent="1" target="ANRu0jSsqkNCVLlQmOHD-64">
          <mxGeometry relative="1" as="geometry">
            <mxPoint x="-15" y="1915" as="targetPoint" />
          </mxGeometry>
        </mxCell>
        <mxCell id="ANRu0jSsqkNCVLlQmOHD-61" value="callback" style="html=1;verticalAlign=bottom;endArrow=block;curved=0;rounded=0;entryX=1;entryY=0;entryDx=0;entryDy=5;" edge="1" parent="1">
          <mxGeometry relative="1" as="geometry">
            <mxPoint x="32" y="1845" as="sourcePoint" />
            <mxPoint x="-83" y="1845" as="targetPoint" />
          </mxGeometry>
        </mxCell>
        <mxCell id="ANRu0jSsqkNCVLlQmOHD-67" value="文件流" style="shape=umlLifeline;perimeter=lifelinePerimeter;whiteSpace=wrap;html=1;container=1;dropTarget=0;collapsible=0;recursiveResize=0;outlineConnect=0;portConstraint=eastwest;newEdgeStyle={&quot;curved&quot;:0,&quot;rounded&quot;:0};" vertex="1" parent="1">
          <mxGeometry x="120" y="1730" width="100" height="490" as="geometry" />
        </mxCell>
        <mxCell id="ANRu0jSsqkNCVLlQmOHD-68" value="" style="html=1;points=[[0,0,0,0,5],[0,1,0,0,-5],[1,0,0,0,5],[1,1,0,0,-5]];perimeter=orthogonalPerimeter;outlineConnect=0;targetShapes=umlLifeline;portConstraint=eastwest;newEdgeStyle={&quot;curved&quot;:0,&quot;rounded&quot;:0};" vertex="1" parent="ANRu0jSsqkNCVLlQmOHD-67">
          <mxGeometry x="45" y="240" width="10" height="80" as="geometry" />
        </mxCell>
        <mxCell id="ANRu0jSsqkNCVLlQmOHD-73" value="upload" style="html=1;verticalAlign=bottom;endArrow=open;dashed=1;endSize=8;curved=0;rounded=0;exitX=1;exitY=1;exitDx=0;exitDy=-5;" edge="1" parent="1">
          <mxGeometry relative="1" as="geometry">
            <mxPoint x="164.5" y="2030" as="targetPoint" />
            <mxPoint x="-80.5" y="2030" as="sourcePoint" />
          </mxGeometry>
        </mxCell>
        <mxCell id="ANRu0jSsqkNCVLlQmOHD-74" value="callback" style="html=1;verticalAlign=bottom;endArrow=block;curved=0;rounded=0;entryX=1;entryY=0;entryDx=0;entryDy=5;" edge="1" parent="1">
          <mxGeometry relative="1" as="geometry">
            <mxPoint x="161" y="1980" as="sourcePoint" />
            <mxPoint x="-84" y="1980" as="targetPoint" />
          </mxGeometry>
        </mxCell>
        <mxCell id="ANRu0jSsqkNCVLlQmOHD-75" value="埋点助手-导入模块" style="shape=umlLifeline;perimeter=lifelinePerimeter;whiteSpace=wrap;html=1;container=1;dropTarget=0;collapsible=0;recursiveResize=0;outlineConnect=0;portConstraint=eastwest;newEdgeStyle={&quot;curved&quot;:0,&quot;rounded&quot;:0};" vertex="1" parent="1">
          <mxGeometry x="260" y="1730" width="110" height="490" as="geometry" />
        </mxCell>
        <mxCell id="ANRu0jSsqkNCVLlQmOHD-77" value="" style="html=1;points=[[0,0,0,0,5],[0,1,0,0,-5],[1,0,0,0,5],[1,1,0,0,-5]];perimeter=orthogonalPerimeter;outlineConnect=0;targetShapes=umlLifeline;portConstraint=eastwest;newEdgeStyle={&quot;curved&quot;:0,&quot;rounded&quot;:0};" vertex="1" parent="ANRu0jSsqkNCVLlQmOHD-75">
          <mxGeometry x="50" y="110" width="10" height="220" as="geometry" />
        </mxCell>
        <mxCell id="ANRu0jSsqkNCVLlQmOHD-82" value="" style="html=1;points=[[0,0,0,0,5],[0,1,0,0,-5],[1,0,0,0,5],[1,1,0,0,-5]];perimeter=orthogonalPerimeter;outlineConnect=0;targetShapes=umlLifeline;portConstraint=eastwest;newEdgeStyle={&quot;curved&quot;:0,&quot;rounded&quot;:0};" vertex="1" parent="ANRu0jSsqkNCVLlQmOHD-75">
          <mxGeometry x="50" y="360" width="10" height="100" as="geometry" />
        </mxCell>
        <mxCell id="ANRu0jSsqkNCVLlQmOHD-78" value="download" style="html=1;verticalAlign=bottom;endArrow=open;dashed=1;endSize=8;curved=0;rounded=0;" edge="1" parent="1">
          <mxGeometry relative="1" as="geometry">
            <mxPoint x="303" y="2030" as="targetPoint" />
            <mxPoint x="183" y="2030" as="sourcePoint" />
          </mxGeometry>
        </mxCell>
        <mxCell id="ANRu0jSsqkNCVLlQmOHD-79" value="download" style="html=1;verticalAlign=bottom;endArrow=open;dashed=1;endSize=8;curved=0;rounded=0;" edge="1" parent="1">
          <mxGeometry relative="1" as="geometry">
            <mxPoint x="303" y="1880" as="targetPoint" />
            <mxPoint x="53" y="1880" as="sourcePoint" />
          </mxGeometry>
        </mxCell>
        <mxCell id="ANRu0jSsqkNCVLlQmOHD-83" value="start" style="html=1;verticalAlign=bottom;endArrow=open;dashed=1;endSize=8;curved=0;rounded=0;exitX=1;exitY=1;exitDx=0;exitDy=-5;" edge="1" parent="1">
          <mxGeometry relative="1" as="geometry">
            <mxPoint x="309.5" y="2110" as="targetPoint" />
            <mxPoint x="-83" y="2110" as="sourcePoint" />
          </mxGeometry>
        </mxCell>
        <mxCell id="ANRu0jSsqkNCVLlQmOHD-84" value="callback" style="html=1;verticalAlign=bottom;endArrow=block;curved=0;rounded=0;" edge="1" parent="1">
          <mxGeometry relative="1" as="geometry">
            <mxPoint x="306" y="2160" as="sourcePoint" />
            <mxPoint x="-84" y="2160" as="targetPoint" />
            <mxPoint as="offset" />
          </mxGeometry>
        </mxCell>
        <mxCell id="ANRu0jSsqkNCVLlQmOHD-85" value="excel文件" style="shape=umlLifeline;perimeter=lifelinePerimeter;whiteSpace=wrap;html=1;container=1;dropTarget=0;collapsible=0;recursiveResize=0;outlineConnect=0;portConstraint=eastwest;newEdgeStyle={&quot;curved&quot;:0,&quot;rounded&quot;:0};" vertex="1" parent="1">
          <mxGeometry x="-1360" y="1754" width="100" height="596" as="geometry" />
        </mxCell>
        <mxCell id="ANRu0jSsqkNCVLlQmOHD-100" value="" style="html=1;points=[[0,0,0,0,5],[0,1,0,0,-5],[1,0,0,0,5],[1,1,0,0,-5]];perimeter=orthogonalPerimeter;outlineConnect=0;targetShapes=umlLifeline;portConstraint=eastwest;newEdgeStyle={&quot;curved&quot;:0,&quot;rounded&quot;:0};" vertex="1" parent="ANRu0jSsqkNCVLlQmOHD-85">
          <mxGeometry x="45" y="86" width="10" height="494" as="geometry" />
        </mxCell>
        <mxCell id="ANRu0jSsqkNCVLlQmOHD-86" value="文件类型" style="shape=umlLifeline;perimeter=lifelinePerimeter;whiteSpace=wrap;html=1;container=1;dropTarget=0;collapsible=0;recursiveResize=0;outlineConnect=0;portConstraint=eastwest;newEdgeStyle={&quot;curved&quot;:0,&quot;rounded&quot;:0};" vertex="1" parent="1">
          <mxGeometry x="-1220" y="1754" width="100" height="596" as="geometry" />
        </mxCell>
        <mxCell id="ANRu0jSsqkNCVLlQmOHD-93" value="" style="html=1;points=[[0,0,0,0,5],[0,1,0,0,-5],[1,0,0,0,5],[1,1,0,0,-5]];perimeter=orthogonalPerimeter;outlineConnect=0;targetShapes=umlLifeline;portConstraint=eastwest;newEdgeStyle={&quot;curved&quot;:0,&quot;rounded&quot;:0};" vertex="1" parent="ANRu0jSsqkNCVLlQmOHD-86">
          <mxGeometry x="45" y="86" width="10" height="80" as="geometry" />
        </mxCell>
        <mxCell id="ANRu0jSsqkNCVLlQmOHD-87" value="文件结构" style="shape=umlLifeline;perimeter=lifelinePerimeter;whiteSpace=wrap;html=1;container=1;dropTarget=0;collapsible=0;recursiveResize=0;outlineConnect=0;portConstraint=eastwest;newEdgeStyle={&quot;curved&quot;:0,&quot;rounded&quot;:0};" vertex="1" parent="1">
          <mxGeometry x="-1090" y="1754" width="100" height="596" as="geometry" />
        </mxCell>
        <mxCell id="ANRu0jSsqkNCVLlQmOHD-94" value="" style="html=1;points=[[0,0,0,0,5],[0,1,0,0,-5],[1,0,0,0,5],[1,1,0,0,-5]];perimeter=orthogonalPerimeter;outlineConnect=0;targetShapes=umlLifeline;portConstraint=eastwest;newEdgeStyle={&quot;curved&quot;:0,&quot;rounded&quot;:0};" vertex="1" parent="ANRu0jSsqkNCVLlQmOHD-87">
          <mxGeometry x="45" y="156" width="10" height="80" as="geometry" />
        </mxCell>
        <mxCell id="ANRu0jSsqkNCVLlQmOHD-88" value="协议结构" style="shape=umlLifeline;perimeter=lifelinePerimeter;whiteSpace=wrap;html=1;container=1;dropTarget=0;collapsible=0;recursiveResize=0;outlineConnect=0;portConstraint=eastwest;newEdgeStyle={&quot;curved&quot;:0,&quot;rounded&quot;:0};" vertex="1" parent="1">
          <mxGeometry x="-950" y="1754" width="100" height="596" as="geometry" />
        </mxCell>
        <mxCell id="ANRu0jSsqkNCVLlQmOHD-95" value="" style="html=1;points=[[0,0,0,0,5],[0,1,0,0,-5],[1,0,0,0,5],[1,1,0,0,-5]];perimeter=orthogonalPerimeter;outlineConnect=0;targetShapes=umlLifeline;portConstraint=eastwest;newEdgeStyle={&quot;curved&quot;:0,&quot;rounded&quot;:0};" vertex="1" parent="ANRu0jSsqkNCVLlQmOHD-88">
          <mxGeometry x="45" y="236" width="10" height="80" as="geometry" />
        </mxCell>
        <mxCell id="ANRu0jSsqkNCVLlQmOHD-89" value="协议格式" style="shape=umlLifeline;perimeter=lifelinePerimeter;whiteSpace=wrap;html=1;container=1;dropTarget=0;collapsible=0;recursiveResize=0;outlineConnect=0;portConstraint=eastwest;newEdgeStyle={&quot;curved&quot;:0,&quot;rounded&quot;:0};" vertex="1" parent="1">
          <mxGeometry x="-820" y="1754" width="100" height="596" as="geometry" />
        </mxCell>
        <mxCell id="ANRu0jSsqkNCVLlQmOHD-96" value="" style="html=1;points=[[0,0,0,0,5],[0,1,0,0,-5],[1,0,0,0,5],[1,1,0,0,-5]];perimeter=orthogonalPerimeter;outlineConnect=0;targetShapes=umlLifeline;portConstraint=eastwest;newEdgeStyle={&quot;curved&quot;:0,&quot;rounded&quot;:0};" vertex="1" parent="ANRu0jSsqkNCVLlQmOHD-89">
          <mxGeometry x="45" y="316" width="10" height="80" as="geometry" />
        </mxCell>
        <mxCell id="ANRu0jSsqkNCVLlQmOHD-90" value="业务逻辑" style="shape=umlLifeline;perimeter=lifelinePerimeter;whiteSpace=wrap;html=1;container=1;dropTarget=0;collapsible=0;recursiveResize=0;outlineConnect=0;portConstraint=eastwest;newEdgeStyle={&quot;curved&quot;:0,&quot;rounded&quot;:0};" vertex="1" parent="1">
          <mxGeometry x="-680" y="1754" width="100" height="596" as="geometry" />
        </mxCell>
        <mxCell id="ANRu0jSsqkNCVLlQmOHD-97" value="" style="html=1;points=[[0,0,0,0,5],[0,1,0,0,-5],[1,0,0,0,5],[1,1,0,0,-5]];perimeter=orthogonalPerimeter;outlineConnect=0;targetShapes=umlLifeline;portConstraint=eastwest;newEdgeStyle={&quot;curved&quot;:0,&quot;rounded&quot;:0};" vertex="1" parent="ANRu0jSsqkNCVLlQmOHD-90">
          <mxGeometry x="45" y="396" width="10" height="80" as="geometry" />
        </mxCell>
        <mxCell id="ANRu0jSsqkNCVLlQmOHD-91" value="字符合法性" style="shape=umlLifeline;perimeter=lifelinePerimeter;whiteSpace=wrap;html=1;container=1;dropTarget=0;collapsible=0;recursiveResize=0;outlineConnect=0;portConstraint=eastwest;newEdgeStyle={&quot;curved&quot;:0,&quot;rounded&quot;:0};" vertex="1" parent="1">
          <mxGeometry x="-540" y="1754" width="100" height="596" as="geometry" />
        </mxCell>
        <mxCell id="ANRu0jSsqkNCVLlQmOHD-98" value="" style="html=1;points=[[0,0,0,0,5],[0,1,0,0,-5],[1,0,0,0,5],[1,1,0,0,-5]];perimeter=orthogonalPerimeter;outlineConnect=0;targetShapes=umlLifeline;portConstraint=eastwest;newEdgeStyle={&quot;curved&quot;:0,&quot;rounded&quot;:0};" vertex="1" parent="ANRu0jSsqkNCVLlQmOHD-91">
          <mxGeometry x="45" y="476" width="10" height="80" as="geometry" />
        </mxCell>
        <mxCell id="ANRu0jSsqkNCVLlQmOHD-92" value="结果输出" style="shape=umlLifeline;perimeter=lifelinePerimeter;whiteSpace=wrap;html=1;container=1;dropTarget=0;collapsible=0;recursiveResize=0;outlineConnect=0;portConstraint=eastwest;newEdgeStyle={&quot;curved&quot;:0,&quot;rounded&quot;:0};" vertex="1" parent="1">
          <mxGeometry x="-400" y="1754" width="100" height="606" as="geometry" />
        </mxCell>
        <mxCell id="ANRu0jSsqkNCVLlQmOHD-99" value="" style="html=1;points=[[0,0,0,0,5],[0,1,0,0,-5],[1,0,0,0,5],[1,1,0,0,-5]];perimeter=orthogonalPerimeter;outlineConnect=0;targetShapes=umlLifeline;portConstraint=eastwest;newEdgeStyle={&quot;curved&quot;:0,&quot;rounded&quot;:0};" vertex="1" parent="ANRu0jSsqkNCVLlQmOHD-92">
          <mxGeometry x="45" y="70" width="10" height="536" as="geometry" />
        </mxCell>
        <mxCell id="ANRu0jSsqkNCVLlQmOHD-101" value="upload" style="html=1;verticalAlign=bottom;endArrow=open;dashed=1;endSize=8;curved=0;rounded=0;exitX=1;exitY=1;exitDx=0;exitDy=-5;entryX=0;entryY=1;entryDx=0;entryDy=-5;entryPerimeter=0;" edge="1" parent="1">
          <mxGeometry relative="1" as="geometry">
            <mxPoint x="-1180.5" y="1910" as="targetPoint" />
            <mxPoint x="-1300.5" y="1910" as="sourcePoint" />
          </mxGeometry>
        </mxCell>
        <mxCell id="ANRu0jSsqkNCVLlQmOHD-102" value="callback" style="html=1;verticalAlign=bottom;endArrow=block;curved=0;rounded=0;entryX=1;entryY=0;entryDx=0;entryDy=5;" edge="1" parent="1">
          <mxGeometry relative="1" as="geometry">
            <mxPoint x="-1185" y="1855" as="sourcePoint" />
            <mxPoint x="-1300" y="1855" as="targetPoint" />
          </mxGeometry>
        </mxCell>
        <mxCell id="ANRu0jSsqkNCVLlQmOHD-103" value="upload" style="html=1;verticalAlign=bottom;endArrow=open;dashed=1;endSize=8;curved=0;rounded=0;exitX=1;exitY=1;exitDx=0;exitDy=-5;" edge="1" parent="1">
          <mxGeometry relative="1" as="geometry">
            <mxPoint x="-1050" y="1982" as="targetPoint" />
            <mxPoint x="-1300" y="1981.5" as="sourcePoint" />
          </mxGeometry>
        </mxCell>
        <mxCell id="ANRu0jSsqkNCVLlQmOHD-104" value="callback" style="html=1;verticalAlign=bottom;endArrow=block;curved=0;rounded=0;entryX=1;entryY=0;entryDx=0;entryDy=5;" edge="1" parent="1">
          <mxGeometry relative="1" as="geometry">
            <mxPoint x="-1052" y="1950" as="sourcePoint" />
            <mxPoint x="-1300" y="1950" as="targetPoint" />
          </mxGeometry>
        </mxCell>
        <mxCell id="ANRu0jSsqkNCVLlQmOHD-105" value="upload" style="html=1;verticalAlign=bottom;endArrow=open;dashed=1;endSize=8;curved=0;rounded=0;exitX=1;exitY=1;exitDx=0;exitDy=-5;" edge="1" parent="1">
          <mxGeometry relative="1" as="geometry">
            <mxPoint x="-909" y="2060" as="targetPoint" />
            <mxPoint x="-1299" y="2060" as="sourcePoint" />
          </mxGeometry>
        </mxCell>
        <mxCell id="ANRu0jSsqkNCVLlQmOHD-106" value="callback" style="html=1;verticalAlign=bottom;endArrow=block;curved=0;rounded=0;entryX=1;entryY=0;entryDx=0;entryDy=5;" edge="1" parent="1">
          <mxGeometry relative="1" as="geometry">
            <mxPoint x="-910" y="2030" as="sourcePoint" />
            <mxPoint x="-1300" y="2030" as="targetPoint" />
          </mxGeometry>
        </mxCell>
        <mxCell id="ANRu0jSsqkNCVLlQmOHD-107" value="upload" style="html=1;verticalAlign=bottom;endArrow=open;dashed=1;endSize=8;curved=0;rounded=0;exitX=1;exitY=1;exitDx=0;exitDy=-5;" edge="1" parent="1">
          <mxGeometry relative="1" as="geometry">
            <mxPoint x="-780" y="2140" as="targetPoint" />
            <mxPoint x="-1300" y="2140" as="sourcePoint" />
          </mxGeometry>
        </mxCell>
        <mxCell id="ANRu0jSsqkNCVLlQmOHD-108" value="callback" style="html=1;verticalAlign=bottom;endArrow=block;curved=0;rounded=0;entryX=1;entryY=0;entryDx=0;entryDy=5;" edge="1" parent="1">
          <mxGeometry relative="1" as="geometry">
            <mxPoint x="-780" y="2110" as="sourcePoint" />
            <mxPoint x="-1300" y="2110" as="targetPoint" />
          </mxGeometry>
        </mxCell>
        <mxCell id="ANRu0jSsqkNCVLlQmOHD-109" value="upload" style="html=1;verticalAlign=bottom;endArrow=open;dashed=1;endSize=8;curved=0;rounded=0;exitX=1;exitY=1;exitDx=0;exitDy=-5;" edge="1" parent="1">
          <mxGeometry relative="1" as="geometry">
            <mxPoint x="-640" y="2220" as="targetPoint" />
            <mxPoint x="-1300" y="2220" as="sourcePoint" />
          </mxGeometry>
        </mxCell>
        <mxCell id="ANRu0jSsqkNCVLlQmOHD-110" value="callback" style="html=1;verticalAlign=bottom;endArrow=block;curved=0;rounded=0;entryX=1;entryY=0;entryDx=0;entryDy=5;" edge="1" parent="1">
          <mxGeometry relative="1" as="geometry">
            <mxPoint x="-640" y="2190" as="sourcePoint" />
            <mxPoint x="-1300" y="2190" as="targetPoint" />
          </mxGeometry>
        </mxCell>
        <mxCell id="ANRu0jSsqkNCVLlQmOHD-111" value="upload" style="html=1;verticalAlign=bottom;endArrow=open;dashed=1;endSize=8;curved=0;rounded=0;exitX=1;exitY=1;exitDx=0;exitDy=-5;" edge="1" parent="1">
          <mxGeometry relative="1" as="geometry">
            <mxPoint x="-500" y="2290" as="targetPoint" />
            <mxPoint x="-1300" y="2290" as="sourcePoint" />
          </mxGeometry>
        </mxCell>
        <mxCell id="ANRu0jSsqkNCVLlQmOHD-112" value="callback" style="html=1;verticalAlign=bottom;endArrow=block;curved=0;rounded=0;entryX=1;entryY=0;entryDx=0;entryDy=5;" edge="1" parent="1">
          <mxGeometry relative="1" as="geometry">
            <mxPoint x="-500" y="2261" as="sourcePoint" />
            <mxPoint x="-1300" y="2261" as="targetPoint" />
          </mxGeometry>
        </mxCell>
        <mxCell id="ANRu0jSsqkNCVLlQmOHD-113" value="output" style="html=1;verticalAlign=bottom;endArrow=open;dashed=1;endSize=8;curved=0;rounded=0;exitX=1;exitY=1;exitDx=0;exitDy=-5;" edge="1" parent="1">
          <mxGeometry relative="1" as="geometry">
            <mxPoint x="-360" y="1880" as="targetPoint" />
            <mxPoint x="-1160" y="1880" as="sourcePoint" />
          </mxGeometry>
        </mxCell>
        <mxCell id="ANRu0jSsqkNCVLlQmOHD-114" value="output" style="html=1;verticalAlign=bottom;endArrow=open;dashed=1;endSize=8;curved=0;rounded=0;exitX=1;exitY=1;exitDx=0;exitDy=-5;" edge="1" parent="1">
          <mxGeometry relative="1" as="geometry">
            <mxPoint x="-360" y="1950" as="targetPoint" />
            <mxPoint x="-1025" y="1950" as="sourcePoint" />
          </mxGeometry>
        </mxCell>
        <mxCell id="ANRu0jSsqkNCVLlQmOHD-115" value="ouput" style="html=1;verticalAlign=bottom;endArrow=open;dashed=1;endSize=8;curved=0;rounded=0;" edge="1" parent="1">
          <mxGeometry relative="1" as="geometry">
            <mxPoint x="-360" y="2030" as="targetPoint" />
            <mxPoint x="-890" y="2030" as="sourcePoint" />
            <mxPoint as="offset" />
          </mxGeometry>
        </mxCell>
        <mxCell id="ANRu0jSsqkNCVLlQmOHD-116" value="output" style="html=1;verticalAlign=bottom;endArrow=open;dashed=1;endSize=8;curved=0;rounded=0;" edge="1" parent="1">
          <mxGeometry relative="1" as="geometry">
            <mxPoint x="-360" y="2110" as="targetPoint" />
            <mxPoint x="-760" y="2110" as="sourcePoint" />
            <mxPoint as="offset" />
          </mxGeometry>
        </mxCell>
        <mxCell id="ANRu0jSsqkNCVLlQmOHD-117" value="output" style="html=1;verticalAlign=bottom;endArrow=open;dashed=1;endSize=8;curved=0;rounded=0;" edge="1" parent="1">
          <mxGeometry relative="1" as="geometry">
            <mxPoint x="-360" y="2190" as="targetPoint" />
            <mxPoint x="-620" y="2190" as="sourcePoint" />
            <mxPoint as="offset" />
          </mxGeometry>
        </mxCell>
        <mxCell id="ANRu0jSsqkNCVLlQmOHD-118" value="output" style="html=1;verticalAlign=bottom;endArrow=open;dashed=1;endSize=8;curved=0;rounded=0;" edge="1" parent="1">
          <mxGeometry relative="1" as="geometry">
            <mxPoint x="-360" y="2270" as="targetPoint" />
            <mxPoint x="-480" y="2270" as="sourcePoint" />
            <mxPoint as="offset" />
          </mxGeometry>
        </mxCell>
      </root>
    </mxGraphModel>
  </diagram>
</mxfile>
